<?xml version="1.0" encoding="UTF-8"?>
<svg id="Layer_2" data-name="Layer 2" xmlns="http://www.w3.org/2000/svg" viewBox="0 0 429.36 429.37">
  <defs>
    <style>
      .cls-1 {
        fill: #14674c;
        font-family: Montserrat-SemiBold, Montserrat;
        font-size: 72px;
        font-weight: 600;
      }
    </style>
  </defs>
  <g id="Layer_1-2" data-name="Layer 1">
    <text class="cls-1" transform="translate(148.54 74.27) rotate(-16.81)"><tspan x="0" y="0">S</tspan></text>
    <text class="cls-1" transform="translate(195.49 60.51) rotate(1.8)"><tspan x="0" y="0">E</tspan></text>
    <text class="cls-1" transform="translate(246.96 62.31) rotate(21.65)"><tspan x="0" y="0">C</tspan></text>
    <text class="cls-1" transform="translate(298.28 82.85) rotate(42.88)"><tspan x="0" y="0">U</tspan></text>
    <text class="cls-1" transform="translate(341.56 124.36) rotate(64.24)"><tspan x="0" y="0">R</tspan></text>
    <text class="cls-1" transform="translate(363.77 176.27) rotate(79.89)"><tspan x="0" y="0">I</tspan></text>
    <text class="cls-1" transform="translate(369.26 203.19) rotate(93.73)"><tspan x="0" y="0">T</tspan></text>
    <text class="cls-1" transform="translate(366.11 249.47) rotate(111.76)"><tspan x="0" y="0">Y</tspan></text>
    <text class="cls-1" transform="translate(344.88 296.63) rotate(125.93)"><tspan x="0" y="0"> </tspan></text>
    <text class="cls-1" transform="translate(329.78 316.72) rotate(135.26)"><tspan x="0" y="0"> </tspan></text>
    <text class="cls-1" transform="translate(311.65 334.09) rotate(144.57)"><tspan x="0" y="0"> </tspan></text>
    <text class="cls-1" transform="translate(292.75 349.46) rotate(159.58)"><tspan x="0" y="0">C</tspan></text>
    <text class="cls-1" transform="translate(240.22 367.79) rotate(179.07)"><tspan x="0" y="0">E</tspan></text>
    <text class="cls-1" transform="translate(188.52 368.25) rotate(-160.61)"><tspan x="0" y="0">R</tspan></text>
    <text class="cls-1" transform="translate(136.72 348.71) rotate(-141.74)"><tspan x="0" y="0">T</tspan></text>
    <text class="cls-1" transform="translate(100.47 317.89) rotate(-127.86)"><tspan x="0" y="0">I</tspan></text>
    <text class="cls-1" transform="translate(82.93 296.79) rotate(-113.46)"><tspan x="0" y="0">F</tspan></text>
    <text class="cls-1" transform="translate(64.86 250.21) rotate(-98.99)"><tspan x="0" y="0">I</tspan></text>
    <text class="cls-1" transform="translate(59.55 223.3) rotate(-84.31)"><tspan x="0" y="0">E</tspan></text>
    <text class="cls-1" transform="translate(64.24 171.87) rotate(-63.11)"><tspan x="0" y="0">D</tspan></text>
  </g>
</svg>