<?xml version="1.0" encoding="utf-8"?>
<!-- Generator: Adobe Illustrator 27.0.0, SVG Export Plug-In . SVG Version: 6.00 Build 0)  -->
<svg version="1.1" id="layer" xmlns="http://www.w3.org/2000/svg" xmlns:xlink="http://www.w3.org/1999/xlink" x="0px" y="0px"
	 viewBox="0 0 652 652" style="enable-background:new 0 0 652 652;" xml:space="preserve">
<style type="text/css">
	.st0{fill:#1A1919;}
</style>
<g id="Page-1">
	<g id="tc">
		<polygon id="Fill-1" class="st0" points="137.8,70.5 193.9,70.5 193.9,41.9 137.8,41.9 		"/>
		<polyline id="Fill-2" class="st0" points="25.7,41.9 25.7,70.5 53.7,70.5 53.7,127.7 81.7,127.7 81.7,70.5 109.8,70.5 109.8,41.9 
			25.7,41.9 		"/>
		<polyline id="Fill-3" class="st0" points="109.8,127.7 193.9,127.7 193.9,99.1 137.8,99.1 137.8,70.5 109.8,70.5 109.8,127.7 		
			"/>
		<polyline id="Fill-4" class="st0" points="265.4,63.5 224.2,63.5 224.2,75.4 238,75.4 238,112.7 251.6,112.7 251.6,75.4 
			265.4,75.4 265.4,63.5 		"/>
		<path id="Fill-5" class="st0" d="M280.9,75c-9.7,0-16.9,6.5-16.9,19.3c0,11.3,6.1,19.2,17.2,19.2c5.8,0,10.5-1.5,15-4.2l-4.8-8.1
			c-3.7,1.9-6.3,2.6-9.6,2.6c-3.4,0-5.8-1.8-6.3-5.9h21.7c0.1-0.6,0.1-1.4,0.1-2.5C297.4,81.7,291.1,75,280.9,75z M275.7,90
			c0.4-3.7,2-5.6,4.9-5.6c3.7,0,5,1.9,5.6,5.6H275.7z"/>
		<path id="Fill-6" class="st0" d="M321.4,103.2c-3.4,0-5.2-3-5.2-8.9c0-5.8,1.6-9.1,4.9-9.1c2.7,0,3.9,1.5,5.7,4.8l8.7-6.6
			c-3.2-5.2-7.2-8.4-14.2-8.4c-11.8,0-17.6,7.8-17.6,19.1c0,12.4,6.5,19.3,17.3,19.3c6.5,0,10.5-2.5,14.8-8.8l-8-6.3
			C325.4,101.9,323.8,103.2,321.4,103.2"/>
		<path id="Fill-7" class="st0" d="M365,75c-4.4,0-7,1.5-9.3,3.2V61.5L343,66.6v46.2h12.7V91.7c0-4.6,1.6-5.9,4.3-5.9
			c2.6,0,4.2,1.3,4.2,6v21h12.7V90.2C376.9,80.5,373,75,365,75"/>
		<path id="Fill-8" class="st0" d="M407.4,101.6c-5.9,0-8.3-6-8.3-13.5c0-7.8,2.5-13.5,8.2-13.5c4.5,0,6.2,2.9,7.9,7.5l12.4-4.9
			c-3.4-9.3-8.2-14.5-20.3-14.5c-13.2,0-22.5,9.6-22.5,25.4c0,14.6,7.8,25.4,22.4,25.4c11.7,0,17.2-6.3,20.5-12.7l-11.5-6.1
			C413.5,99.3,411.7,101.6,407.4,101.6"/>
		<path id="Fill-9" class="st0" d="M448.1,78.5v-2.7h-12.7v36.9h12.7V92.6c0-4.5,1.9-6,5-6c2.5,0,4.3,1.3,5.9,3.1l3-13.1
			c-1.5-0.9-3.3-1.6-6-1.6C452.7,75,450.2,76.4,448.1,78.5"/>
		<path id="Fill-10" class="st0" d="M489.1,96.9c0,4.6-1.6,5.9-4.2,5.9s-4.2-1.3-4.2-6v-21H468v22.6c0,9.7,3.9,15.1,12,15.1
			c4.3,0,7-1.5,9.2-3.2v2.5h12.7V75.9h-12.7L489.1,96.9"/>
		<path id="Fill-11" class="st0" d="M533,75c-4.4,0-7,1.5-9.3,3.2v-2.5H511v36.9h12.7V91.5c0-4.6,1.6-5.9,4.3-5.9
			c2.6,0,4.2,1.3,4.2,6v21h12.7V90C544.9,80.5,541.1,75,533,75"/>
		<path id="Fill-12" class="st0" d="M570.1,103.2c-3.4,0-5.2-3-5.2-8.9c0-5.8,1.6-9.1,4.8-9.1c2.7,0,3.9,1.5,5.7,4.8l8.7-6.6
			c-3.2-5.2-7.2-8.4-14.2-8.4c-11.8,0-17.6,7.8-17.6,19.1c0,12.4,6.5,19.3,17.3,19.3c6.5,0,10.5-2.5,14.8-8.8l-8-6.3
			C574.2,101.9,572.5,103.2,570.1,103.2"/>
		<path id="Fill-13" class="st0" d="M613.7,75c-4.4,0-7,1.5-9.3,3.2V61.5l-12.7,5.1v46.2h12.7V91.7c0-4.6,1.6-5.9,4.3-5.9
			c2.6,0,4.2,1.3,4.2,6v21h12.7V90.2C625.7,80.5,621.8,75,613.7,75"/>
	</g>
</g>
</svg>
