<svg width="138" height="48" viewBox="0 0 138 48" fill="none" xmlns="http://www.w3.org/2000/svg">
<path d="M128.063 6.3021C128.063 3.09334 125.457 0.492432 122.243 0.492432H44.6031V47.5081H122.243C123.787 47.5081 125.267 46.8957 126.358 45.806C126.899 45.2668 127.327 44.6265 127.62 43.9215C127.912 43.2166 128.063 42.4609 128.063 41.6977V6.3021Z" fill="#808080"/>
<path d="M122.243 48H44.1122V0H122.243C125.729 0.0030545 128.552 2.82313 128.556 6.3022V41.6978C128.552 45.1769 125.729 47.9977 122.243 48M45.0981 47.0164H122.243C125.183 47.0126 127.566 44.6339 127.57 41.6986V6.3022C127.566 3.36759 125.183 0.988896 122.243 0.984314H45.0981V47.0157V47.0164ZM19.942 15.8666L17.9161 18.6638C16.8981 20.0635 17.2135 22.5438 18.6033 23.5449L22.368 26.258C23.014 26.7239 23.0644 27.1904 22.7582 27.6776L23.3057 28.0839L25.2125 25.4471C26.3908 23.8175 26.2877 21.6007 24.5405 20.3308L20.7376 17.5665C20.2841 17.235 20.2352 16.7746 20.4872 16.2614L19.9404 15.872M23.1988 3.52261L20.0374 7.88749C18.5544 9.93859 19.1035 13.4253 21.1202 14.9174L26.3198 18.7272C27.3736 19.4984 27.511 21.4663 26.7436 22.4727L27.1842 22.8034L30.7702 17.768C32.3799 15.507 32.2867 12.1653 29.7576 10.3319L24.1969 6.29991C23.418 5.74018 23.0301 4.77648 23.6776 3.86089L23.1996 3.52337M14.8677 30.9016H19.0569L19.8037 33.4369H26.6504L27.3972 30.9016H31.588L31.039 29.0369H15.4167L14.8677 30.9016ZM16.8309 39.3855C17.5663 38.9548 18.0184 38.3226 18.0184 37.4559C18.0184 35.7232 16.5973 35.0168 15.0456 35.0168H10.7128V44.2139H15.0082C16.8416 44.2139 18.7843 43.4144 18.4704 41.3076C18.2834 40.1011 17.8061 39.8155 16.8325 39.3832M12.6677 36.7716H14.928C16.3338 36.7716 16.3842 38.7342 15.015 38.7342H12.6677V36.7716V36.7716ZM15.1838 42.4759H12.6677V40.3782H15.1838C17.0302 40.3782 16.9172 42.4767 15.1838 42.4767V42.4759ZM25.4324 39.3848C26.1686 38.9541 26.6206 38.3218 26.6206 37.4551C26.6206 35.7224 25.1995 35.0161 23.6471 35.0161H19.3143V44.2139H23.6096C25.4423 44.2139 27.3858 43.4144 27.0727 41.3076C26.8856 40.1011 26.4076 39.8155 25.4347 39.3832M21.2775 36.7716H23.5188C24.9246 36.7716 24.975 38.7342 23.6058 38.7342H21.2768V36.7716H21.2775ZM23.7876 42.4744H21.2775V40.3782H23.7876C25.6325 40.3782 25.521 42.4767 23.7876 42.4767V42.4744ZM35.6726 41.3091C35.4856 40.1026 35.0083 39.817 34.0347 39.3848C34.7708 38.9541 35.2221 38.3218 35.2221 37.4551C35.2221 35.7224 33.8018 35.0161 32.2493 35.0161H27.9157V44.2139H32.2111C34.0438 44.2139 35.9873 43.4144 35.6734 41.3076M29.8844 36.7739H32.1256C33.5314 36.7739 33.5818 38.7365 32.2127 38.7365H29.8783L29.8859 36.7739H29.8844ZM32.3944 42.4767H29.8767V40.3782H32.3868C34.2317 40.3782 34.1202 42.4767 32.3868 42.4767H32.3944Z" fill="#808080"/>
<path d="M56.8319 22.0742L56.4119 20.9158H53.4742L53.0428 22.0742H51.3781L54.0286 15.2344H55.8567L58.4958 22.0742H56.8319V22.0742ZM54.9442 16.6891L53.8751 19.6314H56.0133L54.9442 16.6891V16.6891ZM58.8769 18.6577C58.8769 16.5562 60.4683 15.1145 62.5224 15.1145C63.1092 15.0981 63.6889 15.2467 64.1954 15.5434C64.7019 15.8402 65.1149 16.2731 65.3876 16.793L64.1344 17.4084C63.9812 17.1136 63.7516 16.8654 63.4697 16.6895C63.1877 16.5137 62.8638 16.4168 62.5316 16.4089C61.2899 16.4089 60.3858 17.3619 60.3858 18.6463C60.3858 19.9315 61.2899 20.8837 62.5316 20.8837C63.2112 20.8761 63.8321 20.4943 64.1428 19.891L65.3891 20.5111C64.8958 21.3617 64.0337 22.1895 62.524 22.1895C60.4774 22.1895 58.8769 20.7615 58.8769 18.6577ZM66.0053 18.6577C66.0053 16.5562 67.5967 15.1145 69.6509 15.1145C70.2377 15.0981 70.8173 15.2467 71.3238 15.5434C71.8303 15.8402 72.2434 16.2731 72.516 16.793L71.2629 17.4084C71.1076 17.1125 70.8758 16.8637 70.5916 16.6878C70.3074 16.512 69.9812 16.4157 69.6471 16.4089C68.4054 16.4089 67.5013 17.3619 67.5013 18.6463C67.5013 19.9315 68.4054 20.8837 69.6471 20.8837C70.3267 20.8761 70.9475 20.4943 71.2583 19.891L72.5122 20.4943C72.0189 21.3449 71.156 22.1727 69.6471 22.1727C67.5929 22.1895 66.0053 20.7615 66.0053 18.6577V18.6577ZM77.3337 22.0742L75.9897 19.6497H74.9207V22.0742H73.4621V15.2344H76.6671C78.0943 15.2344 78.9679 16.166 78.9679 17.4382C78.9679 18.6486 78.2081 19.303 77.4742 19.4695L79.0152 22.0795L77.3337 22.0742V22.0742ZM77.4719 17.439C77.4719 16.864 77.0313 16.5058 76.4449 16.5058H74.9153V18.3523H76.4449C77.0374 18.3614 77.4719 18.0125 77.4719 17.4382V17.439ZM80.1393 22.0742V15.2344H84.9952V16.5158H81.5993V17.9605H84.9165V19.2419H81.5993V20.789H84.9891V22.0704L80.1393 22.0742ZM86.1994 22.0742V15.2344H88.8996C91.0454 15.2344 92.536 16.5975 92.536 18.66C92.536 20.7218 91.0423 22.0734 88.8996 22.0734H86.1994V22.0742ZM91.0553 18.66C91.0553 17.4497 90.3077 16.5173 88.9095 16.5173H87.6671V20.7913H88.9095C90.2558 20.7913 91.0477 19.8177 91.0477 18.6577L91.0553 18.66ZM93.6471 22.0742V15.2344H95.1056V22.0742H93.6471ZM98.1143 22.0742V16.5158H96.1105V15.2344H101.583V16.5158H99.582V22.0742H98.1143ZM102.581 22.0742V15.2344H107.437V16.5158H104.04V17.9605H107.353V19.2419H104.04V20.789H107.43V22.0704L102.581 22.0742ZM108.642 22.0742V15.2344H111.343C113.488 15.2344 114.978 16.5975 114.978 18.66C114.978 20.7218 113.485 22.0734 111.343 22.0734H108.642V22.0742ZM113.498 18.66C113.498 17.4497 112.751 16.5173 111.352 16.5173H110.11V20.7913H111.352C112.7 20.7913 113.49 19.8177 113.49 18.6577L113.498 18.66ZM52.1089 33.8211V26.982H55.7132C57.0205 26.982 57.6856 27.8113 57.6856 28.7254C57.6856 29.5867 57.1511 30.161 56.5051 30.2931C57.2336 30.4054 57.8124 31.114 57.8124 31.9715C57.8124 32.9971 57.1251 33.818 55.8193 33.818L52.1089 33.8211ZM56.1973 28.9736C56.1972 28.8755 56.1778 28.7784 56.1402 28.6878C56.1026 28.5972 56.0475 28.515 55.978 28.4457C55.9086 28.3764 55.8262 28.3215 55.7356 28.284C55.6449 28.2466 55.5478 28.2274 55.4497 28.2275H53.5674V29.7189H55.3955C55.8873 29.7189 56.195 29.4111 56.195 28.9736H56.1973V28.9736ZM56.3294 31.77C56.3294 31.3393 56.0217 30.9704 55.4459 30.9704H53.5674V32.5588H55.4536C55.9957 32.5588 56.3294 32.2587 56.3294 31.77V31.77ZM58.983 31.0934V26.982H60.4774V31.043C60.4774 31.996 61.038 32.6519 62.0887 32.6519C63.1402 32.6519 63.6916 31.9952 63.6916 31.043V26.982H65.1852V31.0842C65.1852 32.7871 64.1787 33.9448 62.0948 33.9448C60.0101 33.9448 58.983 32.7756 58.983 31.0934ZM66.129 32.8574L66.9186 31.7501C67.2004 32.0431 67.5387 32.2759 67.9131 32.4344C68.2874 32.593 68.69 32.674 69.0965 32.6726C69.8975 32.6726 70.2878 32.2999 70.2878 31.9135C70.2878 31.4126 69.6509 31.269 68.9018 31.0842C67.7815 30.8284 66.3451 30.5245 66.3451 28.9621C66.3451 27.8243 67.3318 26.8812 68.943 26.8812C70.0319 26.8812 70.9361 27.2096 71.6134 27.8342L70.8017 28.9025C70.2539 28.4136 69.5428 28.1474 68.8086 28.1565C68.1824 28.1565 67.8335 28.4344 67.8335 28.843C67.8335 29.2843 68.4596 29.4264 69.1988 29.602C70.3198 29.8685 71.7669 30.2076 71.7669 31.7554C71.7669 33.0063 70.8735 33.9501 69.0255 33.9501C67.7105 33.9371 66.7651 33.5026 66.129 32.8574ZM72.8222 33.8211V26.982H74.2807V33.8211H72.8222ZM80.4363 33.8211L77.1695 29.3615V33.8211H75.711V26.982H77.2054L80.3798 31.2705V26.982H81.8384V33.8211H80.4363ZM83.2801 33.8211V26.982H88.136V28.2626H84.7294V29.7082H88.0466V30.9888H84.7294V32.5366H88.1177V33.818L83.2801 33.8211ZM88.8645 32.8574L89.6541 31.7501C89.9359 32.0431 90.2742 32.2759 90.6485 32.4344C91.0228 32.593 91.4254 32.674 91.8319 32.6726C92.6337 32.6726 93.0232 32.2999 93.0232 31.9135C93.0232 31.4126 92.3863 31.269 91.638 31.0842C90.517 30.8284 89.0813 30.5245 89.0813 28.9621C89.0813 27.8243 90.0664 26.8812 91.6784 26.8812C92.7674 26.8812 93.6715 27.2096 94.3496 27.8342L93.5516 28.9025C93.0036 28.4144 92.2932 28.1483 91.5593 28.1565C90.9331 28.1565 90.5842 28.4344 90.5842 28.843C90.5842 29.2843 91.2119 29.4264 91.9495 29.602C93.0705 29.8685 94.5176 30.2076 94.5176 31.7554C94.5176 33.0063 93.6242 33.9501 91.7762 33.9501C90.4521 33.9371 89.5067 33.5026 88.8645 32.8574V32.8574ZM95.1056 32.8574L95.8959 31.7501C96.1777 32.043 96.5158 32.2757 96.89 32.4343C97.2642 32.5928 97.6667 32.6739 98.073 32.6726C98.8748 32.6726 99.2643 32.2999 99.2643 31.9135C99.2643 31.4126 98.6282 31.269 97.8791 31.0842C96.7588 30.8284 95.3225 30.5245 95.3225 28.9621C95.3225 27.8243 96.3083 26.8812 97.9203 26.8812C99.0092 26.8812 99.9134 27.2096 100.591 27.8342L99.7782 28.9025C99.23 28.4142 98.5193 28.1481 97.7852 28.1565C97.1597 28.1565 96.8108 28.4344 96.8108 28.843C96.8108 29.2843 97.4385 29.4264 98.1761 29.602C99.2964 29.8685 100.744 30.2076 100.744 31.7554C100.744 33.0063 99.8508 33.9501 98.0028 33.9501C96.6855 33.9371 95.7409 33.5026 95.1056 32.8574V32.8574Z" fill="black"/>
<path d="M129.887 43.9597V43.9367C129.885 42.8619 130.31 41.8302 131.069 41.0686C131.827 40.3071 132.857 39.878 133.932 39.8758C134.465 39.8739 134.992 39.9769 135.485 40.1789C135.977 40.3809 136.425 40.678 136.803 41.0532C137.181 41.4284 137.481 41.8744 137.686 42.3656C137.892 42.8568 137.998 43.3837 138 43.9161V43.9383C138.002 45.0132 137.577 46.0448 136.818 46.8064C136.06 47.5679 135.03 47.997 133.955 47.9992C133.423 48.0011 132.895 47.8982 132.403 47.6962C131.91 47.4942 131.462 47.1972 131.084 46.822C130.707 46.4469 130.407 46.0011 130.201 45.5099C129.996 45.0188 129.889 44.492 129.887 43.9597V43.9597ZM137.63 43.9367V43.9146C137.628 43.2682 137.456 42.6337 137.13 42.0752C136.805 41.5166 136.338 41.0535 135.777 40.7326C135.215 40.4112 134.579 40.2431 133.932 40.2451C133.285 40.2471 132.65 40.4191 132.09 40.744C131.531 41.0685 131.068 41.5345 130.746 42.0951C130.424 42.6557 130.256 43.2911 130.258 43.9375V43.9597C130.26 44.606 130.432 45.2404 130.757 45.799C131.083 46.3576 131.549 46.8207 132.11 47.1417C132.672 47.4631 133.308 47.6312 133.955 47.6292C134.602 47.6272 135.237 47.4551 135.797 47.1302C136.356 46.8058 136.82 46.34 137.141 45.7795C137.463 45.219 137.631 44.5837 137.63 43.9375L137.63 43.9367ZM132.352 41.7444H134.22C134.672 41.7239 135.114 41.8803 135.453 42.1804C135.672 42.3912 135.794 42.6829 135.789 42.986V43.0089C135.789 43.6802 135.34 44.0826 134.713 44.2277L136.002 45.8954H135.239L134.041 44.3285H132.976V45.8954H132.36L132.352 41.7444V41.7444ZM134.157 43.7802C134.739 43.7802 135.143 43.5122 135.143 43.0349V43.012C135.143 42.576 134.784 42.2965 134.19 42.2965H132.968V43.7733L134.157 43.781V43.7802ZM7.02823 48C3.54228 47.9969 0.717623 45.1769 0.715332 41.6978V6.3022C0.718387 2.82313 3.54304 0.0030545 7.02746 0H45.098V48H7.02746H7.02823ZM7.02823 0.984314C4.08827 0.988896 1.70575 3.36683 1.70117 6.3022V41.6978C1.70575 44.6332 4.0875 47.0119 7.02746 47.0157H44.1122V0.985077H7.02746L7.02823 0.984314Z" fill="#808080"/>
</svg>
