<svg width="242" height="336" viewBox="0 0 242 336" fill="none" xmlns="http://www.w3.org/2000/svg">
<rect x="36.5084" y="56" width="168.459" height="105.67" rx="6.62701" fill="#14664B"/>
<path d="M195.82 150.055V149.726H195.951V149.66H195.625V149.726H195.755V150.055H195.82ZM196.472 150.055V149.66H196.341L196.211 149.923L196.081 149.66H195.951V150.055H196.016V149.726L196.146 149.989H196.211L196.341 149.726V150.055H196.472Z" fill="#F99F1C"/>
<path d="M185.442 136.495H177.307V151.255H185.442V136.495Z" fill="#F26522"/>
<path d="M177.837 143.875C177.837 140.899 179.252 138.22 181.374 136.494C179.783 135.244 177.778 134.471 175.656 134.471C170.527 134.471 166.342 138.696 166.342 143.875C166.342 149.053 170.527 153.278 175.656 153.278C177.837 153.278 179.842 152.505 181.374 151.255C179.193 149.529 177.837 146.85 177.837 143.875Z" fill="#E51B24"/>
<path d="M196.407 143.875C196.407 149.053 192.221 153.278 187.093 153.278C184.911 153.278 182.907 152.505 181.374 151.255C183.556 149.529 184.911 146.85 184.911 143.875C184.911 140.899 183.497 138.22 181.374 136.494C182.966 135.244 184.97 134.471 187.093 134.471C192.221 134.471 196.407 138.696 196.407 143.875Z" fill="#F99F1C"/>
<path d="M195.523 149.647V149.349H195.64V149.29H195.346V149.349H195.464V149.647H195.523ZM196.112 149.647V149.29H195.994L195.876 149.528L195.758 149.29H195.64V149.647H195.699V149.349L195.817 149.587H195.876L195.994 149.349V149.647H196.112Z" fill="white"/>
<rect width="50.5377" height="12.6344" transform="translate(48.5134 68.3076)" fill="black"/>
<path fill-rule="evenodd" clip-rule="evenodd" d="M98.9861 68.3076V80.942H48.4484V68.3076H98.9861ZM86.2238 71.3399C85.7896 71.3399 85.3735 71.4077 84.9755 71.5434C84.5775 71.6791 84.2172 71.8796 83.8946 72.1449C83.572 72.4103 83.3127 72.7645 83.1167 73.2078C82.9207 73.651 82.8227 74.15 82.8227 74.7048C82.8227 75.2354 82.9207 75.7118 83.1167 76.1339C83.3127 76.5561 83.575 76.8938 83.9036 77.147C84.2323 77.4003 84.5956 77.5933 84.9936 77.7259C85.3916 77.8586 85.8077 77.9249 86.2419 77.9249C86.9052 77.9249 87.5173 77.7893 88.0781 77.5179V76.1882C87.6921 76.538 87.1494 76.7129 86.4499 76.7129C86.1665 76.7129 85.8936 76.6722 85.6313 76.5907C85.369 76.5093 85.1308 76.3902 84.9167 76.2334C84.7026 76.0767 84.5323 75.8671 84.4056 75.6048C84.279 75.3425 84.2157 75.0425 84.2157 74.7048C84.2157 73.9932 84.4343 73.455 84.8715 73.0902C85.3087 72.7253 85.8348 72.5429 86.4499 72.5429C87.0771 72.5429 87.6047 72.7087 88.0329 73.0404V71.7469C87.4901 71.4756 86.8871 71.3399 86.2238 71.3399ZM55.2585 71.4665H52.8705V77.7983H54.2273V75.7179H55.2585C57.0796 75.7179 57.9902 75.0093 57.9902 73.5922C57.9902 72.1751 57.0796 71.4665 55.2585 71.4665ZM62.1346 71.4665H59.5295V77.7983H60.8863V75.5822H61.8813L63.5909 77.7983H65.1557L63.2652 75.4103C64.1879 75.1148 64.6492 74.4877 64.6492 73.5289C64.6492 73.1429 64.5783 72.8113 64.4366 72.5339C64.2949 72.2565 64.0989 72.0424 63.8487 71.8916C63.5984 71.7409 63.3331 71.6323 63.0527 71.566C62.7723 71.4997 62.4662 71.4665 62.1346 71.4665ZM67.9071 71.4665H66.5503V77.7983H67.9071V71.4665ZM70.8669 71.4665H69.4015L71.8619 77.7983H73.2549L75.7243 71.4665H74.2589L72.5584 76.2063L70.8669 71.4665ZM79.6736 71.4665H78.2083L75.6213 77.7983H77.0233L77.4937 76.6134H80.3882L80.8495 77.7983H82.2516L79.6736 71.4665ZM90.5716 71.4665H89.0429L91.5214 75.555V77.7983H92.8691V75.555L95.3385 71.4665H93.8099L92.1907 74.3068L90.5716 71.4665ZM78.9409 72.7238C78.9711 72.8866 79.0163 73.0525 79.0766 73.2213L79.9631 75.4917H77.9188L78.7962 73.2213C78.8565 73.0766 78.9048 72.9108 78.9409 72.7238ZM55.3218 72.6605C56.1781 72.6605 56.6062 72.9711 56.6062 73.5922C56.6062 74.2133 56.1781 74.5239 55.3218 74.5239H54.2273V72.6605H55.3218ZM62.1979 72.6605C62.5115 72.6605 62.7677 72.7329 62.9667 72.8776C63.1657 73.0223 63.2652 73.2485 63.2652 73.556C63.2652 73.8575 63.1642 74.0821 62.9622 74.2299C62.7602 74.3776 62.5054 74.4515 62.1979 74.4515H60.8863V72.6605H62.1979Z" fill="#FCF6F0"/>
<path d="M48.6446 140.273L48.6446 140.432L51.1683 147.908L53.6282 147.908L56.1517 140.432L56.1517 140.273L54.2113 140.273L52.4618 146.057L52.377 146.057L50.6274 140.273L48.6446 140.273ZM56.855 142.288L56.8551 147.908L58.7212 147.908L58.7212 142.288L56.855 142.288ZM56.855 141.673L58.7212 141.673L58.7211 140.273L56.855 140.273L56.855 141.673ZM59.8268 142.288L59.8269 147.908L61.693 147.908L61.693 145.023C61.693 144.101 62.1277 143.74 62.9124 143.74L63.4001 143.74L63.4001 142.245L62.9335 142.245C62.308 142.245 61.905 142.431 61.693 142.892L61.6081 142.892L61.6081 142.288L59.8268 142.288ZM63.9087 142.288L63.9087 143.666L65.0221 143.666L65.0221 146.296C65.0221 147.335 65.7007 147.907 66.7611 147.907L68.2561 147.907L68.2561 146.423L66.9731 146.423L66.8883 146.338L66.8882 143.666L68.3091 143.666L68.309 142.288L66.8882 142.288L66.8882 140.909L65.022 140.909L65.022 142.288L63.9087 142.288ZM74.7338 147.907L74.7337 142.288L72.8675 142.288L72.8676 145.437C72.8676 146.274 72.401 146.571 71.8073 146.571C71.2559 146.571 70.9802 146.274 70.9802 145.744L70.9801 142.288L69.114 142.288L69.114 145.893C69.114 147.292 69.9199 148.013 71.2771 148.013C71.9663 148.013 72.4912 147.838 72.8464 147.467L72.9312 147.467L72.9312 147.907L74.7338 147.907ZM75.8882 143.931L75.8882 144.09L77.6165 144.09C77.6536 143.677 77.9664 143.443 78.539 143.443C79.1116 143.443 79.3873 143.677 79.3873 144.175L79.3873 144.244L77.5847 144.461C76.482 144.594 75.5807 145.108 75.5807 146.243C75.5808 147.345 76.4502 147.992 77.7544 147.992C78.7617 147.992 79.1859 147.69 79.3661 147.42L79.4509 147.42L79.4509 147.907L81.1687 147.907L81.1686 144.472C81.1686 142.871 80.1613 142.16 78.5602 142.16C76.9591 142.16 75.9995 142.871 75.8882 143.931ZM77.4363 146.137C77.4363 145.824 77.6908 145.649 78.0195 145.606L79.3873 145.426L79.3873 145.606C79.3873 146.306 78.9208 146.677 78.1997 146.677C77.7014 146.677 77.4363 146.455 77.4363 146.137ZM82.224 140.273L82.2241 147.907L84.0903 147.907L84.0902 140.273L82.224 140.273ZM87.5508 144.09C87.5508 146.582 88.9928 148.056 91.5906 148.056C94.1566 148.056 95.1851 146.534 95.2805 145.171L95.2805 145.012L93.478 145.012C93.4144 145.617 93.0114 146.454 91.633 146.454C90.2334 146.454 89.523 145.585 89.523 144.09C89.5229 142.595 90.2333 141.725 91.633 141.725C93.0008 141.725 93.3931 142.51 93.4461 143.114L95.2487 143.114L95.2487 142.955C95.2168 141.683 94.1565 140.124 91.5905 140.124C88.9927 140.124 87.5507 141.598 87.5508 144.09ZM96.142 143.931L96.142 144.09L97.8703 144.09C97.9074 143.676 98.2202 143.443 98.7928 143.443C99.3654 143.443 99.6411 143.676 99.6411 144.175L99.6411 144.244L97.8385 144.461C96.7358 144.594 95.8345 145.108 95.8345 146.242C95.8346 147.345 96.704 147.992 98.0082 147.992C99.0155 147.992 99.4397 147.69 99.6199 147.419L99.7047 147.419L99.7047 147.907L101.422 147.907L101.422 144.472C101.422 142.87 100.415 142.16 98.814 142.16C97.2129 142.16 96.2533 142.871 96.142 143.931ZM97.6901 146.136C97.6901 145.823 97.9446 145.649 98.2733 145.606L99.6411 145.426L99.6411 145.606C99.6411 146.306 99.1746 146.677 98.4535 146.677C97.9552 146.677 97.6901 146.454 97.6901 146.136ZM102.478 142.287L102.478 147.907L104.344 147.907L104.344 145.044C104.344 144.122 104.779 143.761 105.563 143.761L106.369 143.761L106.369 142.266L105.585 142.266C104.959 142.266 104.556 142.452 104.344 142.892L104.259 142.892L104.259 142.287L102.478 142.287ZM112.72 140.272L110.854 140.273L110.854 142.674L110.775 142.674C110.377 142.314 109.841 142.181 109.211 142.181C107.832 142.181 106.655 143.082 106.655 145.097C106.655 147.112 107.832 148.013 109.211 148.013C109.868 148.013 110.425 147.87 110.822 147.472L110.907 147.472L110.907 147.907L112.72 147.907L112.72 140.272ZM108.543 145.097C108.543 144.111 109.009 143.591 109.741 143.591C110.472 143.591 110.939 144.111 110.939 145.097C110.939 146.083 110.472 146.603 109.741 146.603C109.009 146.603 108.543 146.083 108.543 145.097Z" fill="white"/>
<rect x="22.2635" y="94.7114" width="196.949" height="123.541" rx="7.74777" fill="#5456E4"/>
<path d="M208.518 204.673V204.288H208.671V204.211H208.29V204.288H208.442V204.673H208.518ZM209.28 204.673V204.211H209.128L208.975 204.519L208.823 204.211H208.671V204.673H208.747V204.288L208.899 204.596H208.975L209.128 204.288V204.673H209.28Z" fill="#F99F1C"/>
<path d="M196.385 188.819H186.874V206.076H196.385V188.819Z" fill="#F26522"/>
<path d="M187.494 197.447C187.494 193.968 189.148 190.837 191.629 188.819C189.768 187.358 187.425 186.453 184.944 186.453C178.948 186.453 174.055 191.394 174.055 197.447C174.055 203.501 178.948 208.441 184.944 208.441C187.494 208.441 189.837 207.537 191.629 206.076C189.079 204.058 187.494 200.926 187.494 197.447Z" fill="#E51B24"/>
<path d="M209.204 197.447C209.204 203.501 204.311 208.441 198.315 208.441C195.765 208.441 193.421 207.537 191.629 206.076C194.179 204.058 195.765 200.926 195.765 197.447C195.765 193.968 194.111 190.837 191.629 188.819C193.49 187.358 195.834 186.453 198.315 186.453C204.311 186.453 209.204 191.394 209.204 197.447Z" fill="#F99F1C"/>
<path d="M208.17 204.196V203.848H208.308V203.778H207.963V203.848H208.101V204.196H208.17ZM208.859 204.196V203.778H208.722L208.584 204.057L208.446 203.778H208.308V204.196H208.377V203.848L208.515 204.126H208.584L208.722 203.848V204.196H208.859Z" fill="white"/>
<rect width="59.0846" height="14.7712" transform="translate(36.2988 109.101)" fill="black"/>
<path fill-rule="evenodd" clip-rule="evenodd" d="M95.3074 109.101V123.872H36.2228V109.101H95.3074ZM80.3867 112.646C79.8791 112.646 79.3926 112.725 78.9273 112.884C78.462 113.042 78.0408 113.277 77.6636 113.587C77.2864 113.897 76.9833 114.311 76.7541 114.829C76.525 115.348 76.4104 115.931 76.4104 116.58C76.4104 117.2 76.525 117.757 76.7541 118.251C76.9833 118.744 77.2899 119.139 77.6742 119.435C78.0584 119.731 78.4832 119.957 78.9485 120.112C79.4138 120.267 79.9002 120.344 80.4079 120.344C81.1834 120.344 81.8989 120.186 82.5546 119.869V118.314C82.1034 118.723 81.4689 118.927 80.6511 118.927C80.3197 118.927 80.0007 118.88 79.694 118.785C79.3873 118.689 79.1089 118.55 78.8586 118.367C78.6083 118.184 78.4091 117.939 78.2611 117.632C78.113 117.325 78.039 116.974 78.039 116.58C78.039 115.748 78.2946 115.118 78.8057 114.692C79.3168 114.265 79.932 114.052 80.6511 114.052C81.3843 114.052 82.0012 114.246 82.5017 114.634V113.122C81.8672 112.804 81.1622 112.646 80.3867 112.646ZM44.1845 112.794H41.3927V120.196H42.979V117.764H44.1845C46.3137 117.764 47.3782 116.936 47.3782 115.279C47.3782 113.622 46.3137 112.794 44.1845 112.794ZM52.2235 112.794H49.1779V120.196H50.7641V117.605H51.9274L53.9261 120.196H55.7556L53.5454 117.404C54.6241 117.059 55.1634 116.326 55.1634 115.205C55.1634 114.754 55.0806 114.366 54.9149 114.042C54.7492 113.717 54.5201 113.467 54.2275 113.291C53.9349 113.114 53.6247 112.988 53.2969 112.91C52.9691 112.832 52.6113 112.794 52.2235 112.794ZM58.9723 112.794H57.3861V120.196H58.9723V112.794ZM62.4326 112.794H60.7195L63.5959 120.196H65.2245L68.1115 112.794H66.3983L64.4102 118.335L62.4326 112.794ZM72.7288 112.794H71.0156L67.9911 120.196H69.6303L70.1802 118.811H73.5642L74.1036 120.196H75.7427L72.7288 112.794ZM85.4698 112.794H83.6826L86.5802 117.574V120.196H88.1559V117.574L91.043 112.794H89.2557L87.3628 116.114L85.4698 112.794ZM71.8722 114.264C71.9074 114.454 71.9603 114.648 72.0308 114.845L73.0672 117.5H70.6772L71.703 114.845C71.7735 114.676 71.8299 114.482 71.8722 114.264ZM44.2586 114.19C45.2597 114.19 45.7602 114.553 45.7602 115.279C45.7602 116.005 45.2597 116.368 44.2586 116.368H42.979V114.19H44.2586ZM52.2975 114.19C52.6642 114.19 52.9638 114.274 53.1964 114.443C53.4291 114.613 53.5454 114.877 53.5454 115.237C53.5454 115.589 53.4273 115.852 53.1911 116.024C52.955 116.197 52.6571 116.284 52.2975 116.284H50.7641V114.19H52.2975Z" fill="#FCF6F0"/>
<path d="M36.4522 192.884L36.4522 193.07L39.4027 201.81L42.2786 201.809L45.2289 193.07L45.2289 192.884L42.9603 192.884L40.915 199.646L40.8158 199.646L38.7703 192.884L36.4522 192.884ZM46.0511 195.239L46.0512 201.809L48.233 201.809L48.2329 195.239L46.0511 195.239ZM46.0511 194.52L48.2329 194.52L48.2329 192.884L46.0511 192.884L46.0511 194.52ZM49.5255 195.239L49.5256 201.809L51.7074 201.809L51.7073 198.438C51.7073 197.359 52.2156 196.938 53.1329 196.938L53.7031 196.938L53.7031 195.19L53.1577 195.19C52.4263 195.19 51.9552 195.407 51.7073 195.946L51.6081 195.946L51.6081 195.239L49.5255 195.239ZM54.2977 195.239L54.2978 196.851L55.5994 196.851L55.5994 199.925C55.5995 201.14 56.3928 201.809 57.6325 201.809L59.3804 201.809L59.3804 200.074L57.8804 200.074L57.7812 199.975L57.7812 196.851L59.4423 196.851L59.4423 195.239L57.7811 195.239L57.7811 193.628L55.5993 193.628L55.5994 195.239L54.2977 195.239ZM66.9535 201.809L66.9534 195.239L64.7717 195.239L64.7717 198.921C64.7717 199.9 64.2263 200.247 63.5321 200.247C62.8875 200.247 62.5652 199.9 62.5652 199.28L62.5651 195.239L60.3833 195.239L60.3834 199.454C60.3834 201.09 61.3256 201.933 62.9123 201.933C63.7181 201.933 64.3317 201.729 64.747 201.295L64.8461 201.295L64.8461 201.809L66.9535 201.809ZM68.3032 197.16L68.3032 197.346L70.3238 197.346C70.3672 196.863 70.7329 196.59 71.4023 196.59C72.0717 196.59 72.394 196.863 72.394 197.446L72.394 197.526L70.2867 197.78C68.9974 197.935 67.9437 198.536 67.9438 199.863C67.9438 201.152 68.9603 201.908 70.4851 201.908C71.6627 201.908 72.1586 201.555 72.3693 201.239L72.4685 201.239L72.4685 201.809L74.4767 201.809L74.4767 197.793C74.4766 195.921 73.299 195.09 71.4271 195.09C69.5552 195.09 68.4334 195.921 68.3032 197.16ZM70.1131 199.739C70.1131 199.373 70.4106 199.169 70.7949 199.119L72.3941 198.908L72.3941 199.119C72.3941 199.937 71.8486 200.371 71.0057 200.371C70.4231 200.371 70.1131 200.111 70.1131 199.739ZM75.7105 192.884L75.7106 201.809L77.8924 201.809L77.8923 192.884L75.7105 192.884ZM81.9381 197.346C81.9382 200.259 83.6241 201.982 86.6612 201.982C89.6612 201.982 90.8636 200.203 90.9752 198.611L90.9751 198.425L88.8678 198.425C88.7934 199.131 88.3223 200.111 86.7108 200.111C85.0745 200.111 84.2439 199.094 84.2439 197.346C84.2438 195.598 85.0744 194.582 86.7107 194.582C88.3099 194.582 88.7685 195.499 88.8305 196.206L90.9379 196.206L90.9379 196.02C90.9007 194.532 89.661 192.71 86.6611 192.71C83.624 192.71 81.9381 194.433 81.9381 197.346ZM91.9823 197.16L91.9823 197.346L94.003 197.346C94.0463 196.863 94.412 196.59 95.0814 196.59C95.7508 196.59 96.0732 196.863 96.0732 197.445L96.0732 197.526L93.9658 197.78C92.6766 197.935 91.6229 198.536 91.6229 199.863C91.6229 201.152 92.6394 201.908 94.1642 201.908C95.3418 201.908 95.8377 201.555 96.0484 201.238L96.1476 201.238L96.1476 201.809L98.1558 201.809L98.1558 197.792C98.1557 195.92 96.9781 195.09 95.1062 195.09C93.2343 195.09 92.1125 195.92 91.9823 197.16ZM93.7923 199.739C93.7923 199.373 94.0898 199.168 94.4741 199.119L96.0732 198.908L96.0732 199.119C96.0732 199.937 95.5278 200.371 94.6848 200.371C94.1022 200.371 93.7923 200.11 93.7923 199.739ZM99.3897 195.239L99.3898 201.809L101.572 201.809L101.571 198.462C101.571 197.383 102.08 196.962 102.997 196.962L103.939 196.962L103.939 195.214L103.022 195.214C102.29 195.214 101.819 195.431 101.571 195.945L101.472 195.945L101.472 195.239L99.3897 195.239ZM111.364 192.883L109.182 192.883L109.182 195.691L109.089 195.691C108.625 195.269 107.999 195.114 107.261 195.114C105.649 195.115 104.273 196.168 104.274 198.524C104.274 200.879 105.65 201.933 107.261 201.933C108.03 201.933 108.68 201.765 109.145 201.3L109.245 201.3L109.245 201.809L111.364 201.808L111.364 192.883ZM106.48 198.524C106.48 197.371 107.026 196.763 107.881 196.763C108.736 196.763 109.282 197.371 109.282 198.523C109.282 199.676 108.736 200.284 107.881 200.284C107.026 200.284 106.48 199.676 106.48 198.524Z" fill="white"/>
<rect x="6.05383" y="135.481" width="229.368" height="143.876" rx="9.02312" fill="#202020"/>
<rect width="68.8105" height="17.2026" transform="translate(22.3994 152.239)" fill="black"/>
<path fill-rule="evenodd" clip-rule="evenodd" d="M91.1214 152.239V169.442H22.3109V152.239H91.1214ZM73.7446 156.368C73.1534 156.368 72.5869 156.46 72.045 156.645C71.5031 156.83 71.0125 157.103 70.5732 157.464C70.134 157.825 69.7809 158.308 69.5141 158.911C69.2472 159.515 69.1138 160.194 69.1138 160.949C69.1138 161.672 69.2472 162.321 69.5141 162.895C69.7809 163.47 70.1381 163.93 70.5856 164.275C71.033 164.62 71.5277 164.882 72.0696 165.063C72.6115 165.244 73.1781 165.334 73.7692 165.334C74.6724 165.334 75.5058 165.149 76.2694 164.78V162.969C75.7439 163.445 75.0049 163.684 74.0525 163.684C73.6666 163.684 73.2951 163.628 72.9379 163.517C72.5807 163.406 72.2564 163.244 71.9649 163.031C71.6735 162.817 71.4415 162.532 71.2691 162.175C71.0967 161.818 71.0104 161.409 71.0104 160.949C71.0104 159.981 71.3081 159.248 71.9034 158.751C72.4986 158.254 73.215 158.006 74.0525 158.006C74.9064 158.006 75.6248 158.232 76.2078 158.683V156.922C75.4688 156.553 74.6478 156.368 73.7446 156.368ZM31.5832 156.54H28.3318V165.161H30.1792V162.329H31.5832C34.0629 162.329 35.3027 161.364 35.3027 159.435C35.3027 157.505 34.0629 156.54 31.5832 156.54ZM40.9455 156.54H37.3985V165.161H39.2459V162.144H40.6007L42.9284 165.161H45.059L42.485 161.91C43.7412 161.508 44.3693 160.654 44.3693 159.348C44.3693 158.823 44.2729 158.371 44.0799 157.994C43.887 157.616 43.6201 157.324 43.2794 157.119C42.9386 156.914 42.5774 156.766 42.1956 156.676C41.8138 156.585 41.3971 156.54 40.9455 156.54ZM48.8052 156.54H46.9579V165.161H48.8052V156.54ZM52.8351 156.54H50.84L54.1899 165.161H56.0866L59.4488 156.54H57.4536L55.1382 162.994L52.8351 156.54ZM64.8261 156.54H62.8309L59.3086 165.161H61.2175L61.858 163.548H65.7991L66.4272 165.161H68.3362L64.8261 156.54ZM79.6645 156.54H77.5831L80.9576 162.107V165.161H82.7927V162.107L86.155 156.54H84.0736L81.869 160.408L79.6645 156.54ZM63.8285 158.252C63.8696 158.474 63.9312 158.7 64.0133 158.93L65.2202 162.021H62.4368L63.6315 158.93C63.7136 158.733 63.7793 158.507 63.8285 158.252ZM31.6694 158.166C32.8354 158.166 33.4183 158.589 33.4183 159.435C33.4183 160.28 32.8354 160.703 31.6694 160.703H30.1792V158.166H31.6694ZM41.0317 158.166C41.4587 158.166 41.8076 158.265 42.0786 158.462C42.3495 158.659 42.485 158.967 42.485 159.385C42.485 159.796 42.3475 160.102 42.0724 160.303C41.7974 160.504 41.4505 160.605 41.0317 160.605H39.2459V158.166H41.0317Z" fill="#FCF6F0"/>
<path d="M22.578 250.333L22.578 250.549L26.0142 260.727L29.3636 260.727L32.7994 250.549L32.7994 250.333L30.1575 250.333L27.7755 258.208L27.66 258.208L25.2778 250.333L22.578 250.333ZM33.757 253.076L33.7572 260.727L36.2981 260.727L36.298 253.076L33.757 253.076ZM33.757 252.238L36.2979 252.238L36.2979 250.333L33.757 250.333L33.757 252.238ZM37.8034 253.076L37.8035 260.727L40.3444 260.727L40.3443 256.8C40.3443 255.544 40.9362 255.054 42.0045 255.054L42.6686 255.054L42.6686 253.018L42.0334 253.018C41.1816 253.018 40.633 253.271 40.3443 253.899L40.2288 253.899L40.2288 253.076L37.8034 253.076ZM43.3611 253.076L43.3612 254.952L44.8771 254.952L44.8771 258.533C44.8771 259.948 45.8011 260.727 47.2448 260.727L49.2804 260.727L49.2804 258.706L47.5335 258.706L47.418 258.591L47.418 254.952L49.3525 254.952L49.3525 253.076L47.4179 253.076L47.4179 251.199L44.877 251.199L44.877 253.076L43.3611 253.076ZM58.1002 260.727L58.1001 253.075L55.5592 253.075L55.5592 257.363C55.5592 258.504 54.924 258.908 54.1155 258.908C53.3648 258.908 52.9895 258.504 52.9894 257.782L52.9894 253.075L50.4485 253.076L50.4485 257.984C50.4486 259.89 51.5458 260.871 53.3937 260.871C54.3321 260.871 55.0468 260.633 55.5304 260.128L55.6459 260.128L55.6459 260.727L58.1002 260.727ZM59.672 255.313L59.672 255.53L62.0253 255.53C62.0758 254.967 62.5017 254.649 63.2813 254.649C64.0609 254.649 64.4362 254.967 64.4362 255.645L64.4362 255.739L61.982 256.035C60.4805 256.215 59.2534 256.916 59.2534 258.46C59.2534 259.962 60.4373 260.842 62.213 260.842C63.5845 260.842 64.162 260.431 64.4074 260.063L64.5229 260.063L64.5229 260.727L66.8617 260.727L66.8617 256.049C66.8616 253.869 65.4901 252.902 63.3101 252.902C61.1301 252.902 59.8236 253.869 59.672 255.313ZM61.7799 258.316C61.7799 257.89 62.1264 257.652 62.5739 257.594L64.4363 257.349L64.4363 257.594C64.4363 258.547 63.8011 259.052 62.8194 259.052C62.1408 259.052 61.7799 258.749 61.7799 258.316ZM68.2986 250.332L68.2988 260.727L70.8397 260.727L70.8395 250.332L68.2986 250.332ZM75.5514 255.529C75.5514 258.922 77.5149 260.929 81.0519 260.929C84.5457 260.929 85.9461 258.857 86.076 257.002L86.076 256.785L83.6217 256.785C83.5351 257.608 82.9865 258.749 81.1097 258.749C79.204 258.749 78.2367 257.565 78.2367 255.529C78.2366 253.494 79.2039 252.31 81.1096 252.31C82.9719 252.31 83.5061 253.378 83.5783 254.201L86.0326 254.201L86.0326 253.985C85.9893 252.252 84.5455 250.13 81.0518 250.13C77.5147 250.13 75.5513 252.137 75.5514 255.529ZM87.2489 255.313L87.2489 255.529L89.6022 255.529C89.6527 254.966 90.0786 254.649 90.8582 254.649C91.6378 254.649 92.0131 254.966 92.0132 255.645L92.0132 255.739L89.5589 256.035C88.0574 256.215 86.8303 256.915 86.8303 258.46C86.8303 259.961 88.0142 260.842 89.7899 260.842C91.1614 260.842 91.7389 260.431 91.9843 260.062L92.0998 260.062L92.0999 260.727L94.4386 260.727L94.4386 256.049C94.4385 253.869 93.067 252.902 90.887 252.902C88.707 252.902 87.4005 253.869 87.2489 255.313ZM89.3568 258.316C89.3568 257.89 89.7033 257.651 90.1508 257.594L92.0132 257.348L92.0132 257.594C92.0132 258.547 91.378 259.052 90.3963 259.052C89.7177 259.052 89.3568 258.749 89.3568 258.316ZM95.8756 253.075L95.8757 260.726L98.4166 260.726L98.4165 256.828C98.4165 255.572 99.0084 255.082 100.077 255.082L101.174 255.082L101.174 253.046L100.106 253.046C99.2538 253.046 98.7052 253.299 98.4165 253.898L98.301 253.898L98.301 253.075L95.8756 253.075ZM109.821 250.332L107.28 250.332L107.28 253.602L107.172 253.602C106.631 253.111 105.902 252.93 105.043 252.93C103.166 252.93 101.563 254.158 101.563 256.901C101.563 259.644 103.166 260.871 105.043 260.871C105.938 260.871 106.696 260.676 107.237 260.134L107.353 260.134L107.353 260.726L109.821 260.726L109.821 250.332ZM104.133 256.901C104.133 255.558 104.768 254.851 105.764 254.85C106.761 254.85 107.396 255.558 107.396 256.901C107.396 258.243 106.761 258.951 105.765 258.951C104.768 258.951 104.133 258.243 104.133 256.901Z" fill="white"/>
<g clip-path="url(#clip0_2936_17)">
<path d="M203.577 248C200.032 248 196.848 249.845 196.848 253.23C196.848 257.129 202.472 257.396 202.472 259.336C202.472 260.154 201.518 260.895 199.917 260.895C197.63 260.895 195.914 259.868 195.914 259.868L195.19 263.292C195.19 263.292 197.153 264.167 199.784 264.167C203.673 264.167 206.722 262.246 206.722 258.784C206.722 254.676 201.08 254.41 201.08 252.603C201.08 251.956 201.862 251.252 203.463 251.252C205.274 251.252 206.761 251.994 206.761 251.994L207.485 248.685C207.466 248.685 205.846 248 203.577 248ZM171.095 248.247L171 248.742C171 248.742 172.487 249.008 173.84 249.56C175.575 250.187 175.689 250.549 175.994 251.671L179.178 263.9H183.448L189.986 248.247H185.735L181.522 258.898L179.807 249.864C179.654 248.837 178.854 248.247 177.862 248.247H171.095ZM191.701 248.247L188.366 263.9H192.426L195.743 248.247H191.701ZM214.309 248.247C213.337 248.247 212.822 248.761 212.441 249.674L206.494 263.9H210.745L211.564 261.523H216.749L217.245 263.9H221L217.74 248.247H214.309ZM214.862 252.489L216.12 258.366H212.746L214.862 252.489Z" fill="white"/>
</g>
<defs>
<clipPath id="clip0_2936_17">
<rect width="50" height="16.1667" fill="white" transform="translate(171 248)"/>
</clipPath>
</defs>
</svg>
